HIERARCHY
ROOT joint_Root
{
	OFFSET 0.0 0.0 0.0
	CHANNELS 6 Xposition Yposition Zposition Zrotation Xrotation Yrotation 
	JOINT Hips
	{
		OFFSET 4.5925 91.4895 -427.239
		CHANNELS 6 Xposition Yposition Zposition Zrotation Xrotation Yrotation 
		JOINT Spine
		{
			OFFSET 15.7357 0.0 0.0
			CHANNELS 6 Xposition Yposition Zposition Zrotation Xrotation Yrotation 
			JOINT Chest
			{
				OFFSET 8.98455 -0.406207 0.0
				CHANNELS 6 Xposition Yposition Zposition Zrotation Xrotation Yrotation 
				JOINT Neck
				{
					OFFSET 16.3773 0.0 0.0
					CHANNELS 6 Xposition Yposition Zposition Zrotation Xrotation Yrotation 
					JOINT Head
					{
						OFFSET 6.45672 0.0 0.0
						CHANNELS 6 Xposition Yposition Zposition Zrotation Xrotation Yrotation 
						End Site
						{
							OFFSET 0.0 0.0 0.0
						}
					}
				}
				JOINT Shoulder_L
				{
					OFFSET 12.9942 -0.242716 4.98039
					CHANNELS 6 Xposition Yposition Zposition Zrotation Xrotation Yrotation 
					JOINT UpperArm_L
					{
						OFFSET 5.34809 0.0 0.0
						CHANNELS 6 Xposition Yposition Zposition Zrotation Xrotation Yrotation 
						JOINT LowerArm_L
						{
							OFFSET 24.3286 1.87007e-05 0.0
							CHANNELS 6 Xposition Yposition Zposition Zrotation Xrotation Yrotation 
							JOINT Hand_L
							{
								OFFSET 22.2916 0.0 0.0
								CHANNELS 6 Xposition Yposition Zposition Zrotation Xrotation Yrotation 
								End Site
								{
									OFFSET 0.0 0.0 0.0
								}
							}
						}
					}
				}
				JOINT Shoulder_R
				{
					OFFSET 12.9945 -0.242716 -4.98039
					CHANNELS 6 Xposition Yposition Zposition Zrotation Xrotation Yrotation 
					JOINT UpperArm_R
					{
						OFFSET -5.34813 0.0 0.0
						CHANNELS 6 Xposition Yposition Zposition Zrotation Xrotation Yrotation 
						JOINT LowerArm_R
						{
							OFFSET -24.3289 0.000322201 0.0
							CHANNELS 6 Xposition Yposition Zposition Zrotation Xrotation Yrotation 
							JOINT Hand_R
							{
								OFFSET -22.2915 -0.000108084 0.0
								CHANNELS 6 Xposition Yposition Zposition Zrotation Xrotation Yrotation 
								End Site
								{
									OFFSET 0.0 0.0 0.0
								}
							}
						}
					}
				}
			}
		}
		JOINT UpperLeg_L
		{
			OFFSET -2.19248 -6.46944 0.0
			CHANNELS 6 Xposition Yposition Zposition Zrotation Xrotation Yrotation 
			JOINT LowerLeg_L
			{
				OFFSET 39.0811 0.0 -1.23785e-05
				CHANNELS 6 Xposition Yposition Zposition Zrotation Xrotation Yrotation 
				JOINT Foot_L
				{
					OFFSET 40.9854 0.0 -1.26872e-05
					CHANNELS 6 Xposition Yposition Zposition Zrotation Xrotation Yrotation 
					JOINT Toes_L
					{
						OFFSET 11.7543 0.0 0.0
						CHANNELS 6 Xposition Yposition Zposition Zrotation Xrotation Yrotation 
						End Site
						{
							OFFSET 0.0 0.0 0.0
						}
					}
				}
			}
		}
		JOINT UpperLeg_R
		{
			OFFSET -2.19251 6.46944 0.0
			CHANNELS 6 Xposition Yposition Zposition Zrotation Xrotation Yrotation 
			JOINT LowerLeg_R
			{
				OFFSET -39.0811 -0.00228153 -0.0401928
				CHANNELS 6 Xposition Yposition Zposition Zrotation Xrotation Yrotation 
				JOINT Foot_R
				{
					OFFSET -40.9854 0.0 0.0
					CHANNELS 6 Xposition Yposition Zposition Zrotation Xrotation Yrotation 
					JOINT Toes_R
					{
						OFFSET -11.7543 0.0 0.0
						CHANNELS 6 Xposition Yposition Zposition Zrotation Xrotation Yrotation 
						End Site
						{
							OFFSET 0.0 0.0 0.0
						}
					}
				}
			}
		}
	}
}
MOTION
Frames:	6
Frame Time:	0.0333333
0.000000 0.000000 0.000000 0.000000 0.000000 -0.000000 3.163940 83.251100 482.923000 -84.465500 1.700050 172.802000 15.735700 0.000005 -0.000001 56.413700 82.013100 -54.268800 8.984550 -0.406207 -0.000000 5.764780 -8.852630 4.738190 16.377300 -0.000001 -0.000001 -3.966420 -2.918900 0.475173 6.456720 -0.000001 -0.000000 -11.368200 -0.593233 7.534480 12.994200 -0.242716 4.980390 -89.997700 -0.008503 -75.353200 5.348090 -0.000007 -0.000001 -49.604300 28.321500 -40.496400 24.328600 0.000019 0.000005 34.811800 -12.824800 -107.704000 22.291600 -0.000001 0.000005 8.753930 5.520990 -7.398720 12.994500 -0.242716 -4.980390 87.226100 8.565040 -71.976900 -5.348130 -0.000001 -0.000004 -59.962500 39.393300 6.671660 -24.328900 0.000322 -0.000009 12.000400 -4.964430 -112.152000 -22.291500 -0.000108 -0.000004 9.047960 5.477760 -5.657450 -2.192480 -6.469440 -0.000000 -169.647000 -2.455080 0.555180 39.081100 -0.000007 -0.000012 0.090264 -0.057328 57.577800 40.985400 -0.000006 -0.000013 -10.534000 8.138530 -47.973100 11.754300 -0.000000 0.000003 -0.007823 -0.086592 -20.102700 -2.192510 6.469440 -0.000001 -170.298000 8.123000 151.327000 -39.081100 -0.002282 -0.040193 -0.311124 0.210202 56.229700 -40.985400 0.000008 0.000006 7.672710 -1.409870 -85.445300 -11.754300 -0.000006 -0.000006 -0.634413 -0.785172 -16.081500
0.000000 0.000000 0.000000 0.000000 0.000000 -0.000000 2.924620 82.007000 478.639000 -84.135400 1.162090 173.716000 15.735700 0.000005 -0.000001 61.394500 81.767300 -58.718100 8.984550 -0.406207 -0.000000 6.930060 -7.876990 5.831450 16.377300 -0.000001 -0.000001 -3.990970 -2.452700 0.972372 6.456720 -0.000001 -0.000000 -11.613200 0.326920 6.081470 12.994200 -0.242716 4.980390 -90.199800 0.768971 -75.437100 5.348090 -0.000007 -0.000001 -50.530400 31.689300 -34.142500 24.328600 0.000019 0.000005 42.287800 -14.272400 -105.167000 22.291600 -0.000001 0.000005 9.787100 5.575290 -9.947310 12.994500 -0.242716 -4.980390 87.142700 9.261290 -72.770600 -5.348130 -0.000001 -0.000004 -55.199100 39.565800 -3.124020 -24.328900 0.000322 -0.000009 14.087700 -5.626660 -111.345000 -22.291500 -0.000108 -0.000004 9.434330 5.484790 -5.930910 -2.192480 -6.469440 -0.000000 -169.442000 -1.648810 -4.767260 39.081100 -0.000007 -0.000012 0.073256 -0.027963 69.103200 40.985400 -0.000006 -0.000013 -4.621950 0.608820 -51.257500 11.754300 -0.000000 0.000003 -0.007353 -0.082677 -19.942900 -2.192510 6.469440 -0.000001 -170.705000 9.670930 154.996000 -39.081100 -0.002282 -0.040193 -0.099179 0.064238 57.896800 -40.985400 0.000008 0.000006 8.265790 -1.449820 -89.982000 -11.754300 -0.000006 -0.000006 -0.773799 -0.966110 -15.968100
0.000000 0.000000 0.000000 0.000000 0.000000 -0.000000 2.357410 81.949700 474.628000 -84.714800 1.697990 173.421000 15.735700 0.000005 -0.000001 69.138900 82.260800 -66.455800 8.984550 -0.406207 -0.000000 6.857170 -5.515200 5.694450 16.377300 -0.000001 -0.000001 -3.928160 -2.450020 1.752120 6.456720 -0.000001 -0.000000 -11.223900 0.270360 6.357730 12.994200 -0.242716 4.980390 -90.254800 0.986348 -75.518600 5.348090 -0.000007 -0.000001 -54.489700 36.075500 -25.065600 24.328600 0.000019 0.000005 42.258000 -13.027000 -103.934000 22.291600 -0.000001 0.000005 10.632000 5.601480 -11.395900 12.994500 -0.242716 -4.980390 87.453000 8.664930 -73.550200 -5.348130 -0.000001 -0.000004 -53.995500 37.874200 -10.594400 -24.328900 0.000322 -0.000009 21.760400 -8.292730 -109.865000 -22.291500 -0.000108 -0.000004 7.596110 5.476700 -5.622290 -2.192480 -6.469440 -0.000000 -170.912000 -1.360280 -11.662600 39.081100 -0.000007 -0.000012 0.045615 -0.010306 77.260400 40.985400 -0.000006 -0.000013 -0.744091 -2.315920 -53.035000 11.754300 -0.000000 0.000003 -0.007293 -0.082166 -19.922000 -2.192510 6.469440 -0.000001 -172.561000 11.464900 158.830000 -39.081100 -0.002282 -0.040193 0.068214 -0.043570 56.162700 -40.985400 0.000008 0.000006 9.084470 0.116934 -92.089600 -11.754300 -0.000006 -0.000006 -0.833036 -1.037550 -16.325000
0.000000 0.000000 0.000000 0.000000 0.000000 -0.000000 1.676160 83.109300 470.478000 -85.672700 2.938950 172.491000 15.735700 0.000005 -0.000001 78.784300 83.014800 -76.600000 8.984550 -0.406207 -0.000000 5.999070 -2.743710 4.508090 16.377300 -0.000001 -0.000001 -3.810960 -2.405140 2.564410 6.456720 -0.000001 -0.000000 -10.607700 -0.735913 8.216570 12.994200 -0.242716 4.980390 -90.380300 1.403150 -74.835500 5.348090 -0.000007 -0.000001 -58.803000 40.273000 -14.108500 24.328600 0.000019 0.000005 42.819600 -13.013500 -103.659000 22.291600 -0.000001 0.000005 12.202100 5.600630 -11.365600 12.994500 -0.242716 -4.980390 87.799300 8.024550 -74.609500 -5.348130 -0.000001 -0.000004 -54.720600 36.565400 -14.998700 -24.328900 0.000322 -0.000009 23.430100 -8.965600 -109.779000 -22.291500 -0.000108 -0.000004 8.053530 5.478020 -5.667900 -2.192480 -6.469440 -0.000000 -172.779000 -1.264820 -18.201900 39.081100 -0.000007 -0.000012 0.045160 -0.007502 80.558200 40.985400 -0.000006 -0.000013 -0.545974 -0.934946 -55.559000 11.754300 -0.000000 0.000003 -0.006199 -0.072640 -19.533300 -2.192510 6.469440 -0.000001 -175.054000 11.733100 163.301000 -39.081100 -0.002282 -0.040193 0.055730 -0.042425 51.051300 -40.985400 0.000008 0.000006 8.833010 2.171650 -90.402800 -11.754300 -0.000006 -0.000006 -1.382000 -1.691770 -17.896700
0.000000 0.000000 0.000000 0.000000 0.000000 -0.000000 0.784342 85.189900 466.082000 -86.798800 4.156990 171.360000 15.735700 0.000005 -0.000001 89.085300 83.482500 -87.653000 8.984550 -0.406207 -0.000000 5.271840 -0.238768 2.872340 16.377300 -0.000001 -0.000001 -4.123160 -2.236060 3.248970 6.456720 -0.000001 -0.000000 -10.854800 -2.055590 9.238560 12.994200 -0.242716 4.980390 -90.543100 1.840830 -73.558300 5.348090 -0.000007 -0.000001 -62.431000 42.470700 -2.870330 24.328600 0.000019 0.000005 40.239000 -12.903000 -104.782000 22.291600 -0.000001 0.000005 12.036700 5.612620 -12.116000 12.994500 -0.242716 -4.980390 88.326800 6.763030 -76.071400 -5.348130 -0.000001 -0.000004 -57.143500 35.966100 -17.353700 -24.328900 0.000322 -0.000009 21.107500 -8.219240 -110.322000 -22.291500 -0.000108 -0.000004 11.180100 5.491880 -6.192250 -2.192480 -6.469440 -0.000000 -174.825000 -0.992872 -23.539500 39.081100 -0.000007 -0.000012 0.046185 -0.009118 78.823000 40.985400 -0.000006 -0.000013 -0.279349 1.716990 -58.118700 11.754300 -0.000000 0.000003 -0.006845 -0.078340 -19.765800 -2.192510 6.469440 -0.000001 -177.786000 11.625500 167.919000 -39.081100 -0.002282 -0.040193 0.031815 -0.029552 44.009300 -40.985400 0.000008 0.000006 8.677690 4.479450 -83.705000 -11.754300 -0.000006 -0.000006 -2.488840 -2.742630 -22.381200
0.000000 0.000000 0.000000 0.000000 0.000000 -0.000000 -0.174185 87.733300 461.353000 -87.721200 4.960700 170.508000 15.735700 0.000005 -0.000001 98.928900 83.605400 -98.260800 8.984550 -0.406207 -0.000000 4.859390 1.964230 1.251560 16.377300 -0.000001 -0.000001 -4.598810 -2.193430 3.398140 6.456720 -0.000001 -0.000000 -11.468100 -3.499510 9.527750 12.994200 -0.242716 4.980390 -90.449100 1.415700 -72.391100 5.348090 -0.000007 -0.000001 -66.233800 43.110000 7.466390 24.328600 0.000019 0.000005 38.246100 -12.324300 -105.152000 22.291600 -0.000001 0.000005 13.098300 5.626320 -13.066000 12.994500 -0.242716 -4.980390 88.811400 5.305330 -77.355600 -5.348130 -0.000001 -0.000004 -59.524800 35.925200 -18.415000 -24.328900 0.000322 -0.000009 18.608400 -7.291950 -110.654000 -22.291500 -0.000108 -0.000004 14.138600 5.510730 -6.964100 -2.192480 -6.469440 -0.000000 -176.278000 -0.191596 -26.792200 39.081100 -0.000007 -0.000012 0.044975 -0.014221 72.445600 40.985400 -0.000006 -0.000013 -0.034965 3.228300 -61.317100 11.754300 -0.000000 0.000003 -0.006634 -0.076503 -19.690900 -2.192510 6.469440 -0.000001 179.438000 12.881800 172.567000 -39.081100 -0.002282 -0.040193 0.029168 -0.034211 37.109500 -40.985400 0.000008 0.000006 8.566840 7.767700 -75.001100 -11.754300 -0.000006 -0.000006 -0.039321 -0.257393 -27.144300
